[img]http://img855.imageshack.us/img855/9494/blanko.png[/img]


[img]http://img535.imageshack.us/img535/4906/mxmgtorrentstate.jpg[/img]

[quote]
Format                           : AVI
Format/Info                      : Audio Video Interleave
File size                        : 699 MiB
Duration                         : 1h 32mn
Overall bit rate                 : 1 054 Kbps
Writing application              : VirtualDubMod 1.5.10.3 | www.virtualdub-fr.org || (build 2550/release)
Writing library                  : VirtualDubMod build 2550/release

Video
ID                               : 0
Format                           : MPEG-4 Visual
Format profile                   : Advanced Simple@L5
Format settings, BVOP            : 1
Format settings, QPel            : No
Format settings, GMC             : No warppoints
Format settings, Matrix          : Default (H.263)
Codec ID                         : XVID
Codec ID/Hint                    : XviD
Duration                         : 1h 32mn
Bit rate                         : 917 Kbps
Width                            : 640 pixels
Height                           : 272 pixels
Display aspect ratio             : 2.35:1
Frame rate                       : 23.976 fps
Color space                      : YUV
Chroma subsampling               : 4:2:0
Bit depth                        : 8 bits
Scan type                        : Progressive
Compression mode                 : Lossy
Bits/(Pixel*Frame)               : 0.220
Stream size                      : 608 MiB (87%)
Writing library                  : XviD 63

Audio
ID                               : 1
Format                           : MPEG Audio
Format version                   : Version 1
Format profile                   : Layer 3
Codec ID                         : 55
Codec ID/Hint                    : MP3
Duration                         : 1h 32mn
Bit rate mode                    : Constant
Bit rate                         : 128 Kbps
Channel(s)                       : 2 channels
Sampling rate                    : 44.1 KHz
Compression mode                 : Lossy
Stream size                      : 84.9 MiB (12%)
Alignment                        : Split accross interleaves
Interleave, duration             : 42 ms (1.00 video frame)
Interleave, preload duration     : 500 ms
Writing library                  : LAME3.98r
Encoding settings                : -m s -V 4 -q 2 -lowpass 17 -b 128
[/quote]


Screens :
[img]http://img851.imageshack.us/img851/8848/screenshot2011042222h09.png[/img]

[img]http://img854.imageshack.us/img854/4592/screenshot2011042222h14.png[/img]

[img]http://img155.imageshack.us/img155/7080/screenshot2011042222h12.png[/img]

[img]http://img263.imageshack.us/img263/1630/screenshot2011042222h13.png[/img]




[quote]
# Latest codecs used to deliver Top Quality Releases
# Seeded at high speeds to grant super Download speeds
# All DivX/XviD Players compatible and also PS3, Popcorn Hour, WD & XBOX 360*
[/quote]

[code]
Seedboxes provided by   http://www.chociz.com/
A seedbox is a private dedicated server used for the uploading and downloading of digital files.
Speed - You can sit back, relax and watch in amazement at how fast the torrents finish. 
Secure and Safe - With a seedbox, you don’t even need to use a BitTorrent client on your home computer!
Use Private Trackers -  You can register @ Private Trackers and seed like Hell!

Get a Cheap Seedbox choosing for your taste - [url]http://www.chociz.com/whmcs/cart.php[/url]
[/code]

